<svg width="144" height="8" viewBox="0 0 144 8" fill="none" xmlns="http://www.w3.org/2000/svg">
<path opacity="0.45" d="M11.6464 3.64645C11.4512 3.84171 11.4512 4.15829 11.6464 4.35355L14.8284 7.53553C15.0237 7.7308 15.3403 7.7308 15.5355 7.53553C15.7308 7.34027 15.7308 7.02369 15.5355 6.82843L12.7071 4L15.5355 1.17157C15.7308 0.976311 15.7308 0.659728 15.5355 0.464466C15.3403 0.269204 15.0237 0.269204 14.8284 0.464466L11.6464 3.64645ZM132.354 4.35355C132.549 4.15829 132.549 3.84171 132.354 3.64645L129.172 0.464466C128.976 0.269204 128.66 0.269204 128.464 0.464466C128.269 0.659728 128.269 0.976311 128.464 1.17157L131.293 4L128.464 6.82843C128.269 7.02369 128.269 7.34027 128.464 7.53553C128.66 7.7308 128.976 7.7308 129.172 7.53553L132.354 4.35355ZM12 4.5H132V3.5H12V4.5Z" fill="#11E095"/>
<circle opacity="0.45" cx="4" cy="4" r="3.5" stroke="#11E095"/>
<rect opacity="0.45" x="136.5" y="0.5" width="7" height="7" rx="0.5" stroke="#11E095"/>
</svg>
