<svg width="24" height="24" viewBox="0 0 24 24" fill="none" xmlns="http://www.w3.org/2000/svg">
<g clip-path="url(#clip0_20505_9524)">
<path d="M13.7143 3.42773H5.5029C5.09712 3.42773 4.70796 3.58893 4.42103 3.87586C4.1341 4.16279 3.9729 4.55195 3.9729 4.95773V19.0449C3.97403 19.4499 4.13573 19.838 4.42254 20.124C4.70935 20.41 5.09786 20.5706 5.5029 20.5706H13.7143C14.1205 20.5706 14.5101 20.4095 14.7977 20.1227C15.0853 19.8359 15.2475 19.4468 15.2486 19.0406V4.95345C15.2464 4.54802 15.0837 4.15996 14.7962 3.87408C14.5087 3.5882 14.1198 3.42773 13.7143 3.42773ZM14.3915 19.0492C14.3881 19.2265 14.3153 19.3955 14.1887 19.5197C14.062 19.6439 13.8917 19.7135 13.7143 19.7134H5.5029C5.32445 19.7134 5.1533 19.6426 5.02712 19.5164C4.90093 19.3902 4.83004 19.219 4.83004 19.0406V4.95345C4.83118 4.77574 4.90256 4.60569 5.02863 4.48043C5.15469 4.35517 5.32519 4.28487 5.5029 4.28488H13.7143C13.8932 4.28487 14.0648 4.35563 14.1916 4.48169C14.3185 4.60775 14.3903 4.77889 14.3915 4.95773V19.0492ZM12.3386 5.36059H6.89576C6.79634 5.36003 6.6978 5.37912 6.60579 5.41677C6.51378 5.45443 6.43012 5.5099 6.35962 5.58C6.28913 5.65009 6.23318 5.73344 6.19501 5.82523C6.15684 5.91703 6.13718 6.01546 6.13719 6.11488V11.6863C6.14167 11.8845 6.22356 12.0731 6.36534 12.2116C6.50711 12.3502 6.69751 12.4278 6.89576 12.4277H12.3386C12.5391 12.4266 12.7309 12.3462 12.8722 12.204C13.0136 12.0619 13.0929 11.8696 13.0929 11.6692V6.09773C13.0884 5.90067 13.007 5.71319 12.866 5.57542C12.725 5.43765 12.5357 5.36054 12.3386 5.36059ZM12.2358 11.5706H6.99433V6.21773H12.2358V11.5706ZM20.0272 9.85631V18.4834C20.0272 18.9608 19.8375 19.4187 19.5 19.7562C19.1624 20.0938 18.7046 20.2834 18.2272 20.2834C17.7498 20.2834 17.292 20.0938 16.9544 19.7562C16.6168 19.4187 16.4272 18.9608 16.4272 18.4834V13.3406H17.2843V18.4834C17.2843 18.7335 17.3837 18.9733 17.5605 19.1501C17.7373 19.327 17.9771 19.4263 18.2272 19.4263C18.4772 19.4263 18.7171 19.327 18.8939 19.1501C19.0707 18.9733 19.17 18.7335 19.17 18.4834V9.85631C19.1722 8.58894 18.6874 7.36918 17.8158 6.44916L17.2843 5.88773V9.31631H16.4272V3.85631H17.2843V4.65345L18.4286 5.87059C19.4538 6.94441 20.0263 8.37169 20.0272 9.85631Z" fill="white"/>
</g>
<defs>
<clipPath id="clip0_20505_9524">
<rect width="24" height="24" fill="white"/>
</clipPath>
</defs>
</svg>
