<svg width="24" height="25" viewBox="0 0 24 25" fill="none" xmlns="http://www.w3.org/2000/svg">
<g clip-path="url(#clip0_894_1164)">
<path d="M23.639 14.9011C23.0659 17.2046 21.8225 19.2865 20.066 20.8832C18.3096 22.48 16.119 23.5199 13.7714 23.8715C11.4238 24.2231 9.02471 23.8706 6.87753 22.8585C4.73034 21.8464 2.93156 20.2202 1.70873 18.1857C0.485896 16.1511 -0.106053 13.7996 0.00776291 11.4285C0.121578 9.05751 0.936045 6.77349 2.34813 4.86542C3.76022 2.95734 5.7065 1.51093 7.94075 0.709153C10.175 -0.0926271 12.5969 -0.213754 14.9 0.361095C17.9863 1.13144 20.6405 3.0957 22.2792 5.82216C23.9179 8.54862 24.407 11.8142 23.639 14.9011Z" fill="white"/>
<path d="M14.295 11.1502L15.795 8.61123L19.828 14.8922V16.0972L19.809 7.80423C19.8046 7.70379 19.776 7.60589 19.7257 7.51885C19.6754 7.4318 19.6049 7.35818 19.52 7.30423L12.26 3.12823C12.1734 3.08657 12.0786 3.06494 11.9825 3.06494C11.8864 3.06494 11.7916 3.08657 11.705 3.12823C11.6826 3.13952 11.6609 3.15221 11.64 3.16623L11.615 3.18223L4.57102 7.27023L4.54402 7.28223C4.50889 7.29945 4.47541 7.31987 4.44402 7.34323C4.36857 7.39742 4.30611 7.4677 4.26114 7.54898C4.21618 7.63026 4.18984 7.72052 4.18402 7.81323L4.19502 14.5722L7.95102 8.75023C8.24278 8.38843 8.62135 8.10637 9.05149 7.93029C9.48162 7.75422 9.94932 7.68986 10.411 7.74323L11.534 7.77323L4.91502 18.3802L5.69502 18.8292L12.389 7.78323L15.348 7.77223L8.67102 19.0972L11.453 20.6972L11.785 20.8882C11.9284 20.9453 12.0875 20.9485 12.233 20.8972L19.595 16.6312L18.187 17.4472L14.295 11.1502ZM14.866 19.3712L12.056 14.9612L13.771 12.0502L17.462 17.8672L14.866 19.3712Z" fill="#2D374B"/>
<path d="M12.056 14.9612L14.866 19.3712L17.466 17.8712L13.775 12.0542L12.056 14.9612Z" fill="#28A0F0"/>
<path d="M19.826 16.0978V14.8928L15.793 8.61182L14.293 11.1508L18.186 17.4508L19.594 16.6348C19.6621 16.5795 19.7177 16.5106 19.7574 16.4323C19.797 16.3541 19.8197 16.2684 19.824 16.1808L19.826 16.0978Z" fill="#28A0F0"/>
<path d="M2.92702 17.2339L4.91503 18.3789L11.529 7.77087L10.406 7.74087C9.94432 7.6875 9.47662 7.75187 9.04649 7.92794C8.61636 8.10402 8.23778 8.38608 7.94603 8.74787L4.19003 14.5699L2.92603 16.5119L2.92702 17.2339Z" fill="white"/>
<path d="M15.346 7.77197L12.387 7.78297L5.69397 18.829L8.03397 20.176L8.66998 19.097L15.346 7.77197Z" fill="white"/>
<path d="M21.072 7.75717C21.0584 7.45181 20.9707 7.15435 20.8165 6.89042C20.6624 6.62649 20.4463 6.40402 20.187 6.24217L12.832 2.01217C12.5694 1.88306 12.2807 1.81592 11.988 1.81592C11.6954 1.81592 11.4066 1.88306 11.144 2.01217C11.083 2.04317 3.99103 6.15617 3.99103 6.15617C3.68611 6.30255 3.42629 6.5284 3.23887 6.80996C3.05146 7.09152 2.94339 7.41838 2.92603 7.75617V16.5162L4.19003 14.5742L4.17903 7.81517C4.18053 7.79067 4.18354 7.76629 4.18803 7.74217C4.21586 7.58102 4.30603 7.43732 4.43903 7.34217C4.47203 7.31817 11.685 3.14217 11.708 3.13217C11.7946 3.09051 11.8894 3.06888 11.9855 3.06888C12.0816 3.06888 12.1765 3.09051 12.263 3.13217L19.523 7.30817C19.6079 7.36212 19.6784 7.43574 19.7287 7.52279C19.7791 7.60983 19.8076 7.70773 19.812 7.80817V16.1812C19.8102 16.2679 19.7899 16.3533 19.7525 16.4316C19.7151 16.5099 19.6614 16.5793 19.595 16.6352L18.187 17.4512L17.461 17.8722L14.861 19.3722L12.233 20.8992C12.0875 20.9504 11.9284 20.9472 11.785 20.8902L8.67003 19.0992L8.03403 20.1782L10.834 21.7902L11.077 21.9272C11.177 21.9862 11.253 22.0272 11.277 22.0372C11.5112 22.1398 11.7644 22.192 12.02 22.1902C12.2559 22.1903 12.4897 22.1459 12.709 22.0592L20.355 17.6312C20.5706 17.4633 20.7468 17.2503 20.8712 17.007C20.9956 16.7638 21.0652 16.4962 21.075 16.2232L21.072 7.75717Z" fill="#96BEDC"/>
</g>
<defs>
<clipPath id="clip0_894_1164">
<rect width="24" height="24.003" fill="white"/>
</clipPath>
</defs>
</svg>
