<svg width="107" height="40" viewBox="0 0 107 40" fill="none" xmlns="http://www.w3.org/2000/svg">
<g clip-path="url(#clip0_20415_8202)">
<path d="M11.2801 28.8125L24.6768 27.8125V31.0259C24.6765 31.0989 24.6496 31.1693 24.6011 31.2239C24.5526 31.2785 24.4859 31.3136 24.4134 31.3225L6.96009 33.5325C6.91334 33.5377 6.86602 33.5329 6.82125 33.5185C6.77647 33.5041 6.73526 33.4803 6.70031 33.4489C6.66536 33.4174 6.63747 33.3789 6.61848 33.3358C6.59948 33.2928 6.58981 33.2462 6.59009 33.1992V9.99919C6.5908 9.95365 6.60142 9.90881 6.62121 9.8678C6.64101 9.82678 6.66952 9.79058 6.70474 9.7617C6.73996 9.73283 6.78105 9.71198 6.82515 9.70061C6.86925 9.68923 6.9153 9.68761 6.96009 9.69585L11.2934 10.5492L11.2801 28.8125ZM27.7401 10.4792L11.6668 6.47252C11.621 6.46085 11.5732 6.45977 11.527 6.46938C11.4808 6.47899 11.4374 6.49903 11.4001 6.52796C11.3628 6.5569 11.3326 6.59398 11.3118 6.63636C11.291 6.67874 11.2802 6.72531 11.2801 6.77252V10.5392L24.6668 13.1792V27.8159L27.7001 27.5925C27.7764 27.5866 27.8477 27.5521 27.8997 27.4958C27.9516 27.4396 27.9803 27.3658 27.9801 27.2892V10.7959C27.9801 10.7237 27.9567 10.6536 27.9134 10.5959C27.8702 10.5382 27.8093 10.496 27.7401 10.4759V10.4792Z" fill="#11E095"/>
<path d="M41.5166 16.0365H43.1266C43.1423 16.0365 43.1579 16.0396 43.1725 16.0457C43.1871 16.0517 43.2003 16.0605 43.2114 16.0717C43.2226 16.0828 43.2314 16.0961 43.2375 16.1106C43.2435 16.1252 43.2466 16.1408 43.2466 16.1565V26.6665C43.2466 26.6823 43.2435 26.6979 43.2375 26.7125C43.2314 26.727 43.2226 26.7402 43.2114 26.7514C43.2003 26.7625 43.1871 26.7714 43.1725 26.7774C43.1579 26.7834 43.1423 26.7865 43.1266 26.7865H41.7299C41.5976 26.7871 41.4669 26.7573 41.3479 26.6995C41.2289 26.6418 41.1247 26.5575 41.0433 26.4532L35.1866 18.7865V26.6665C35.1857 26.6981 35.1728 26.7281 35.1505 26.7505C35.1282 26.7728 35.0981 26.7857 35.0666 26.7865H33.4566C33.4405 26.787 33.4246 26.7842 33.4096 26.7784C33.3947 26.7725 33.3811 26.7638 33.3696 26.7526C33.3581 26.7414 33.3489 26.728 33.3427 26.7132C33.3365 26.6985 33.3332 26.6826 33.3333 26.6665V16.1565C33.3333 16.1247 33.3459 16.0942 33.3684 16.0717C33.3909 16.0492 33.4214 16.0365 33.4533 16.0365H34.9999C35.1324 16.0352 35.2633 16.0647 35.3824 16.1225C35.5016 16.1803 35.6057 16.265 35.6866 16.3699L41.3999 23.8532V16.1565C41.3999 16.1253 41.4121 16.0953 41.4339 16.0728C41.4557 16.0504 41.4853 16.0374 41.5166 16.0365ZM64.1499 16.0365H54.6966C54.6648 16.0365 54.6342 16.0492 54.6117 16.0717C54.5892 16.0942 54.5766 16.1247 54.5766 16.1565V17.7665C54.5766 17.7984 54.5892 17.8289 54.6117 17.8514C54.6342 17.8739 54.6648 17.8865 54.6966 17.8865H58.4566V26.6665C58.4566 26.6984 58.4692 26.7289 58.4917 26.7514C58.5142 26.7739 58.5448 26.7865 58.5766 26.7865H60.2699C60.2857 26.7865 60.3013 26.7834 60.3158 26.7774C60.3304 26.7714 60.3436 26.7625 60.3548 26.7514C60.3659 26.7402 60.3748 26.727 60.3808 26.7125C60.3868 26.6979 60.3899 26.6823 60.3899 26.6665V17.8832H64.1499C64.1817 17.8832 64.2123 17.8706 64.2348 17.8481C64.2573 17.8256 64.2699 17.795 64.2699 17.7632V16.1532C64.2699 16.1374 64.2668 16.1218 64.2608 16.1073C64.2548 16.0927 64.2459 16.0795 64.2348 16.0684C64.2236 16.0572 64.2104 16.0484 64.1958 16.0423C64.1813 16.0363 64.1657 16.0332 64.1499 16.0332V16.0365ZM53.4832 17.7699V16.1565C53.4832 16.1247 53.4706 16.0942 53.4481 16.0717C53.4256 16.0492 53.3951 16.0365 53.3632 16.0365H45.1366C45.1208 16.0365 45.1052 16.0396 45.0907 16.0457C45.0761 16.0517 45.0629 16.0605 45.0517 16.0717C45.0406 16.0828 45.0318 16.0961 45.0257 16.1106C45.0197 16.1252 45.0166 16.1408 45.0166 16.1565V26.6665C45.0174 26.6981 45.0303 26.7281 45.0527 26.7505C45.075 26.7728 45.105 26.7857 45.1366 26.7865H46.8233C46.8545 26.7857 46.8842 26.7726 46.906 26.7502C46.9277 26.7278 46.9399 26.6978 46.9399 26.6665V23.1432H53.3533C53.3851 23.1432 53.4156 23.1306 53.4381 23.1081C53.4606 23.0856 53.4732 23.055 53.4732 23.0232V21.4132C53.4732 21.3814 53.4606 21.3509 53.4381 21.3284C53.4156 21.3058 53.3851 21.2932 53.3533 21.2932H46.9399V17.8865H53.3533C53.3851 17.8865 53.4156 17.8739 53.4381 17.8514C53.4606 17.8289 53.4732 17.7984 53.4732 17.7665L53.4832 17.7699ZM100.077 22.5899C100.077 19.6699 98.7032 18.2565 95.8832 18.2565C93.0632 18.2565 91.6866 19.6765 91.6866 22.5899C91.6866 25.5032 93.0599 26.9232 95.8832 26.9232C98.7066 26.9232 100.077 25.5065 100.077 22.5899ZM98.2266 22.5899C98.2266 24.4732 97.6566 25.0765 95.8932 25.0765C94.1299 25.0765 93.5599 24.4732 93.5599 22.5899C93.5599 20.7065 94.1299 20.0999 95.8932 20.0999C97.6566 20.0999 98.2266 20.7032 98.2266 22.5899ZM78.2266 23.7932C78.4799 24.6799 79.1299 25.0032 80.4932 25.0799C81.6338 25.1147 82.7752 25.0455 83.9033 24.8732C83.917 24.8713 83.931 24.8724 83.9443 24.8763C83.9577 24.8803 83.97 24.8872 83.9804 24.8963C83.9908 24.9055 83.9992 24.9168 84.0048 24.9295C84.0105 24.9422 84.0134 24.956 84.0132 24.9699V26.5165C84.0137 26.5443 84.0042 26.5713 83.9864 26.5927C83.9687 26.6141 83.9439 26.6284 83.9166 26.6332C82.9857 26.8288 82.0378 26.9327 81.0866 26.9432C80.8432 26.9432 80.6132 26.9432 80.3899 26.9232C77.5632 26.7699 76.2466 25.3932 76.2466 22.5899C76.2466 19.6699 77.7766 18.2565 80.4432 18.2565C83.2632 18.2565 84.5566 19.6732 84.5566 22.5899C84.547 22.9534 84.518 23.3161 84.4699 23.6765C84.4658 23.7095 84.4495 23.7398 84.4242 23.7613C84.3989 23.7829 84.3665 23.7943 84.3332 23.7932H78.2266ZM78.1232 21.9432H82.7599C82.6266 20.5632 81.9966 20.0232 80.4432 20.0232C79.0266 20.0232 78.2699 20.5632 78.1366 21.9432H78.1232ZM86.3766 19.6099V26.6665C86.3766 26.6984 86.3892 26.7289 86.4117 26.7514C86.4342 26.7739 86.4648 26.7865 86.4966 26.7865H88.1066C88.1384 26.7865 88.1689 26.7739 88.1914 26.7514C88.2139 26.7289 88.2266 26.6984 88.2266 26.6665V20.3332C89.1138 20.037 90.0589 19.957 90.9833 20.0999C91.0003 20.1017 91.0174 20.1 91.0338 20.0949C91.0501 20.0897 91.0651 20.0812 91.078 20.0699C91.0908 20.0587 91.1012 20.0448 91.1084 20.0293C91.1156 20.0138 91.1195 19.997 91.1199 19.9799V18.3732C91.1186 18.3435 91.1069 18.3151 91.0867 18.2932C91.0666 18.2713 91.0394 18.2571 91.0099 18.2532C89.3432 18.0699 87.7732 18.3565 86.6766 19.0499C86.5873 19.1118 86.5146 19.1945 86.4646 19.291C86.4147 19.3874 86.389 19.4946 86.3899 19.6032L86.3766 19.6099ZM65.3766 16.1599V17.7699C65.3766 17.8017 65.3892 17.8322 65.4117 17.8547C65.4342 17.8772 65.4648 17.8899 65.4966 17.8899H72.4966L65.6666 24.5899C65.5821 24.673 65.5151 24.7721 65.4693 24.8814C65.4235 24.9907 65.3999 25.108 65.3999 25.2265V26.7132C65.3999 26.745 65.4126 26.7756 65.4351 26.7981C65.4576 26.8206 65.4881 26.8332 65.5199 26.8332H74.9732C75.0051 26.8332 75.0356 26.8206 75.0581 26.7981C75.0806 26.7756 75.0933 26.745 75.0933 26.7132V25.1065C75.0933 25.0747 75.0806 25.0442 75.0581 25.0217C75.0356 24.9992 75.0051 24.9865 74.9732 24.9865H67.9732L74.8199 18.2799C74.9041 18.1965 74.971 18.0974 75.0167 17.9881C75.0625 17.8789 75.0862 17.7617 75.0866 17.6432V16.1532C75.0866 16.1214 75.0739 16.0909 75.0514 16.0684C75.0289 16.0458 74.9984 16.0332 74.9666 16.0332H65.5166C65.5008 16.0332 65.4852 16.0363 65.4707 16.0423C65.4561 16.0484 65.4429 16.0572 65.4317 16.0684C65.4206 16.0795 65.4118 16.0927 65.4057 16.1073C65.3997 16.1218 65.3966 16.1374 65.3966 16.1532L65.3766 16.1599Z" fill="white"/>
</g>
<defs>
<clipPath id="clip0_20415_8202">
<rect width="106.667" height="40" fill="white"/>
</clipPath>
</defs>
</svg>
